<svg width="29" height="29" viewBox="0 0 29 29" fill="none" xmlns="http://www.w3.org/2000/svg">
<path d="M28.6271 20.8578H27.7211V15.7907C27.7211 15.1978 27.5421 14.6162 27.2102 14.124L24.9395 10.7608C24.3839 9.94052 23.4593 9.44832 22.4675 9.44832H18.9477C18.5338 9.44832 18.202 9.78391 18.202 10.1941V20.8579H12.4375C12.9856 21.3314 13.3622 21.9913 13.4703 22.7371H19.548C19.7642 21.2569 21.0394 20.1121 22.5793 20.1121C24.1192 20.1121 25.3907 21.2569 25.607 22.7371H28.6271C28.8322 22.7371 29 22.5693 29 22.3642V21.2307C29 21.0257 28.8322 20.8578 28.6271 20.8578ZM24.9134 14.7951H20.2676C20.0625 14.7951 19.8947 14.631 19.8947 14.4222V11.8458C19.8947 11.6407 20.0625 11.4729 20.2676 11.4729H23.0976C23.2207 11.4729 23.3325 11.5326 23.4033 11.6295L25.2192 14.2097C25.3906 14.4558 25.2154 14.7951 24.9134 14.7951ZM22.5793 20.8578C21.2967 20.8578 20.2601 21.898 20.2601 23.1807C20.2601 24.4596 21.2967 25.4999 22.5793 25.4999C23.8582 25.4999 24.8985 24.4596 24.8985 23.1807C24.8985 21.8981 23.8582 20.8578 22.5793 20.8578ZM22.5793 24.3404C21.9379 24.3404 21.4197 23.8184 21.4197 23.1808C21.4197 22.5395 21.9379 22.0212 22.5793 22.0212C23.2206 22.0212 23.7389 22.5395 23.7389 23.1808C23.7389 23.8184 23.2206 24.3404 22.5793 24.3404ZM3.24278 20.8578C3.0377 20.8578 2.86991 21.0257 2.86991 21.2307V22.3642C2.86991 22.5693 3.0377 22.7371 3.24278 22.7371H7.41134C7.51947 21.9913 7.89604 21.3314 8.44046 20.8579H3.24278V20.8578ZM10.4389 20.8578C9.16005 20.8578 8.11975 21.898 8.11975 23.1807C8.11975 24.4596 9.16005 25.4999 10.4389 25.4999C11.7216 25.4999 12.7581 24.4596 12.7581 23.1807C12.7582 21.8981 11.7216 20.8578 10.4389 20.8578ZM10.4389 24.3404C9.79762 24.3404 9.27937 23.8184 9.27937 23.1808C9.27937 22.5395 9.79762 22.0212 10.4389 22.0212C11.0803 22.0212 11.5986 22.5395 11.5986 23.1808C11.5986 23.8184 11.0803 24.3404 10.4389 24.3404ZM16.017 7.13657H11.6955C11.908 7.7667 12.0199 8.44157 12.0199 9.13885C12.0199 12.6587 9.15636 15.5222 5.63656 15.5222C4.99519 15.5222 4.37255 15.4253 3.78715 15.25V19.3702C3.78715 19.5752 3.95494 19.743 4.16002 19.743H16.7627C16.9678 19.743 17.1356 19.5752 17.1356 19.3702V8.25515C17.1355 7.6362 16.6359 7.13657 16.017 7.13657ZM5.63741 3.50024C2.52394 3.50024 0 6.02414 0 9.13762C0 12.2511 2.52394 14.775 5.63741 14.775C8.75088 14.775 11.2749 12.2511 11.2749 9.13762C11.2749 6.02414 8.75088 3.50024 5.63741 3.50024ZM5.63741 13.4922C3.2325 13.4922 1.28287 11.5426 1.28287 9.13762C1.28287 6.73265 3.2325 4.78307 5.63741 4.78307C8.04237 4.78307 9.99195 6.7327 9.99195 9.13762C9.99195 11.5426 8.04237 13.4922 5.63741 13.4922ZM7.3005 10.0573C7.25245 10.0573 7.20327 10.0511 7.15446 10.038L5.33755 9.54826C5.09361 9.48235 4.92393 9.26101 4.92393 9.00825V6.21179C4.92393 5.90303 5.17445 5.6525 5.48322 5.6525C5.79198 5.6525 6.04251 5.90303 6.04251 6.21179V8.5797L7.44579 8.95798C7.74403 9.03844 7.92059 9.34545 7.84013 9.6436C7.77279 9.89304 7.54705 10.0573 7.3005 10.0573Z" fill="#777777"/>
</svg>
