<svg width="29" height="29" viewBox="0 0 29 29" fill="none" xmlns="http://www.w3.org/2000/svg">
<path d="M28.6271 20.8577H27.7211V15.7906C27.7211 15.1977 27.5421 14.6161 27.2102 14.1239L24.9395 10.7607C24.3839 9.94046 23.4593 9.44826 22.4675 9.44826H18.9477C18.5338 9.44826 18.202 9.78385 18.202 10.194V20.8578H12.4375C12.9856 21.3313 13.3622 21.9913 13.4703 22.737H19.548C19.7642 21.2568 21.0394 20.1121 22.5793 20.1121C24.1192 20.1121 25.3907 21.2568 25.607 22.737H28.6271C28.8322 22.737 29 22.5692 29 22.3642V21.2306C29 21.0256 28.8322 20.8577 28.6271 20.8577ZM24.9134 14.7951H20.2676C20.0625 14.7951 19.8947 14.631 19.8947 14.4222V11.8457C19.8947 11.6407 20.0625 11.4729 20.2676 11.4729H23.0976C23.2207 11.4729 23.3325 11.5325 23.4033 11.6295L25.2192 14.2097C25.3906 14.4558 25.2154 14.7951 24.9134 14.7951ZM22.5793 20.8577C21.2967 20.8577 20.2601 21.898 20.2601 23.1806C20.2601 24.4596 21.2967 25.4998 22.5793 25.4998C23.8582 25.4998 24.8985 24.4596 24.8985 23.1806C24.8985 21.8981 23.8582 20.8577 22.5793 20.8577ZM22.5793 24.3403C21.9379 24.3403 21.4197 23.8183 21.4197 23.1808C21.4197 22.5394 21.9379 22.0211 22.5793 22.0211C23.2206 22.0211 23.7389 22.5394 23.7389 23.1808C23.7389 23.8183 23.2206 24.3403 22.5793 24.3403ZM3.24278 20.8577C3.0377 20.8577 2.86991 21.0256 2.86991 21.2306V22.3642C2.86991 22.5692 3.0377 22.737 3.24278 22.737H7.41134C7.51947 21.9913 7.89604 21.3313 8.44046 20.8578H3.24278V20.8577ZM10.4389 20.8577C9.16005 20.8577 8.11975 21.898 8.11975 23.1806C8.11975 24.4596 9.16005 25.4998 10.4389 25.4998C11.7216 25.4998 12.7581 24.4596 12.7581 23.1806C12.7582 21.8981 11.7216 20.8577 10.4389 20.8577ZM10.4389 24.3403C9.79762 24.3403 9.27937 23.8183 9.27937 23.1808C9.27937 22.5394 9.79762 22.0211 10.4389 22.0211C11.0803 22.0211 11.5986 22.5394 11.5986 23.1808C11.5986 23.8183 11.0803 24.3403 10.4389 24.3403ZM16.017 7.13651H11.6955C11.908 7.76664 12.0199 8.44151 12.0199 9.13879C12.0199 12.6586 9.15636 15.5222 5.63656 15.5222C4.99519 15.5222 4.37255 15.4252 3.78715 15.25V19.3701C3.78715 19.5752 3.95494 19.743 4.16002 19.743H16.7627C16.9678 19.743 17.1356 19.5752 17.1356 19.3701V8.25509C17.1355 7.63614 16.6359 7.13651 16.017 7.13651ZM5.63741 3.50018C2.52394 3.50018 0 6.02408 0 9.13756C0 12.251 2.52394 14.775 5.63741 14.775C8.75088 14.775 11.2749 12.251 11.2749 9.13756C11.2749 6.02408 8.75088 3.50018 5.63741 3.50018ZM5.63741 13.4921C3.2325 13.4921 1.28287 11.5425 1.28287 9.13756C1.28287 6.73259 3.2325 4.78301 5.63741 4.78301C8.04237 4.78301 9.99195 6.73264 9.99195 9.13756C9.99195 11.5425 8.04237 13.4921 5.63741 13.4921ZM7.3005 10.0572C7.25245 10.0572 7.20327 10.051 7.15446 10.0379L5.33755 9.5482C5.09361 9.48229 4.92393 9.26095 4.92393 9.00819V6.21173C4.92393 5.90297 5.17445 5.65244 5.48322 5.65244C5.79198 5.65244 6.04251 5.90297 6.04251 6.21173V8.57964L7.44579 8.95792C7.74403 9.03838 7.92059 9.34539 7.84013 9.64354C7.77279 9.89298 7.54705 10.0572 7.3005 10.0572Z" fill="black"/>
</svg>
