<svg width="100" height="100" viewBox="0 0 100 100" fill="none" xmlns="http://www.w3.org/2000/svg">
<path d="M38.3333 33.3333H35V36.6667H38.3333V33.3333Z" fill="black"/>
<path d="M38.3333 40H35V43.3333H38.3333V40Z" fill="black"/>
<path d="M38.3333 46.6667H35V50H38.3333V46.6667Z" fill="black"/>
<path d="M38.3333 53.3333H35V56.6667H38.3333V53.3333Z" fill="black"/>
<path d="M44.9994 33.3333H41.666V36.6667H44.9994V33.3333Z" fill="black"/>
<path d="M44.9994 40H41.666V43.3333H44.9994V40Z" fill="black"/>
<path d="M44.9994 46.6667H41.666V50H44.9994V46.6667Z" fill="black"/>
<path d="M44.9994 53.3333H41.666V56.6667H44.9994V53.3333Z" fill="black"/>
<path d="M51.6673 33.3333H48.334V36.6667H51.6673V33.3333Z" fill="black"/>
<path d="M51.6673 40H48.334V43.3333H51.6673V40Z" fill="black"/>
<path d="M51.6673 46.6667H48.334V50H51.6673V46.6667Z" fill="black"/>
<path d="M51.6673 53.3333H48.334V56.6667H51.6673V53.3333Z" fill="black"/>
<path d="M58.3333 33.3333H55V36.6667H58.3333V33.3333Z" fill="black"/>
<path d="M44.9994 26.6667H41.666V30H44.9994V26.6667Z" fill="black"/>
<path d="M51.6673 26.6667H48.334V30H51.6673V26.6667Z" fill="black"/>
<path d="M58.3333 26.6667H55V30H58.3333V26.6667Z" fill="black"/>
<path d="M58.3333 40H55V43.3333H58.3333V40Z" fill="black"/>
<path d="M58.3333 46.6667H55V50H58.3333V46.6667Z" fill="black"/>
<path d="M58.3333 53.3333H55V56.6667H58.3333V53.3333Z" fill="black"/>
<path d="M64.9993 33.3333H61.666V36.6667H64.9993V33.3333Z" fill="black"/>
<path d="M64.9993 40H61.666V43.3333H64.9993V40Z" fill="black"/>
<path d="M64.9993 46.6667H61.666V50H64.9993V46.6667Z" fill="black"/>
<path d="M64.9993 53.3333H61.666V56.6667H64.9993V53.3333Z" fill="black"/>
<path d="M98.3352 25C98.3346 25 98.334 25 98.3333 25H73.3333V1.66667C73.334 0.746665 72.5885 0.000623485 71.6685 -1.51461e-06C71.6679 -1.51461e-06 71.6673 -1.51461e-06 71.6667 -1.51461e-06H28.3333C27.4133 -0.000626515 26.6673 0.74479 26.6667 1.66479C26.6667 1.66542 26.6667 1.66604 26.6667 1.66667V25H1.66667C0.746667 24.9994 0.000625393 25.7448 3.9274e-07 26.6648C3.9274e-07 26.6654 3.9274e-07 26.666 3.9274e-07 26.6667V86.6667C-0.000624607 87.5867 0.744792 88.3327 1.66479 88.3333C1.66542 88.3333 1.66604 88.3333 1.66667 88.3333H5.15063C5.05396 88.8837 5.00354 89.4412 5 90V98.3333C4.99938 99.2533 5.74479 99.9994 6.66479 100C6.66542 100 6.66604 100 6.66667 100H93.3333C94.2533 100.001 94.9994 99.2552 95 98.3352C95 98.3346 95 98.334 95 98.3333V90C94.9967 89.4412 94.9463 88.8837 94.8494 88.3333H98.3333C99.2533 88.334 99.9994 87.5885 100 86.6685C100 86.6679 100 86.6673 100 86.6667V26.6667C100.001 25.7467 99.2552 25.0006 98.3352 25ZM71.6667 71.6667C71.6667 73.5077 70.1744 75 68.3333 75C66.4923 75 65 73.5077 65 71.6667C65 69.8256 66.4923 68.3333 68.3333 68.3333C70.1733 68.3356 71.6644 69.8267 71.6667 71.6667ZM31.6667 68.3333C33.5077 68.3333 35 69.8256 35 71.6667C35 73.5077 33.5077 75 31.6667 75C29.8256 75 28.3333 73.5077 28.3333 71.6667C28.3356 69.8267 29.8267 68.3356 31.6667 68.3333ZM21.6667 96.6667H8.33333V90C8.33333 86.3181 11.3181 83.3333 15 83.3333C18.6819 83.3333 21.6667 86.3181 21.6667 90V96.6667ZM11.6667 76.6667C11.6667 74.8256 13.159 73.3333 15 73.3333C16.841 73.3333 18.3333 74.8256 18.3333 76.6667C18.3333 78.5077 16.841 80 15 80C13.16 79.9977 11.669 78.5067 11.6667 76.6667ZM21.9192 82.7969C21.2906 82.1906 20.5858 81.669 19.8225 81.245C22.3646 78.5817 22.2665 74.3617 19.6031 71.8194C16.9398 69.2771 12.7198 69.3754 10.1775 72.0387C7.71854 74.6148 7.71854 78.6687 10.1775 81.2448C8.58667 82.1277 7.265 83.4254 6.35292 84.9998H3.33333V28.3333H26.6667V67.3033C24.3779 69.8715 24.4552 73.7698 26.8442 76.245C24.3442 77.6277 22.5527 80.011 21.9192 82.7969ZM38.3333 96.6667H25V85C25 81.3181 27.9848 78.3333 31.6667 78.3333C35.3485 78.3333 38.3333 81.3181 38.3333 85V96.6667ZM58.3333 96.6667H41.6667V85C41.6667 80.3977 45.3977 76.6667 50 76.6667C54.6023 76.6667 58.3333 80.3977 58.3333 85V96.6667ZM45 68.3333C45 65.5719 47.2385 63.3333 50 63.3333C52.7615 63.3333 55 65.5719 55 68.3333C55 71.0948 52.7615 73.3333 50 73.3333C47.2398 73.3304 45.0029 71.0935 45 68.3333ZM60.1504 79.2698C59.0344 77.3023 57.374 75.6992 55.3685 74.6531C58.8888 71.6881 59.3387 66.4308 56.374 62.9106C53.409 59.3904 48.1517 58.9404 44.6315 61.9052C41.1112 64.8702 40.6612 70.1275 43.626 73.6477C43.9319 74.0108 44.2681 74.3471 44.6315 74.6531C42.626 75.6992 40.9656 77.3023 39.8496 79.2698C38.9733 78.0198 37.8242 76.9854 36.4892 76.245C39.0444 73.631 38.9969 69.4404 36.3827 66.8852C34.6996 65.2398 32.2694 64.6123 30 65.2367V3.33333H70V65.2367C69.4569 65.0869 68.8967 65.0073 68.3333 65C64.6612 64.9902 61.6765 67.9592 61.6667 71.6315C61.6621 73.3498 62.3231 75.0033 63.5108 76.245C62.1758 76.9854 61.0267 78.0198 60.1504 79.2698ZM75 90V96.6667H61.6667V85C61.6667 81.3181 64.6515 78.3333 68.3333 78.3333C72.0152 78.3333 75 81.3181 75 85V90ZM91.6667 96.6667H78.3333V90C78.3333 86.3181 81.3181 83.3333 85 83.3333C88.6819 83.3333 91.6667 86.3181 91.6667 90V96.6667ZM81.6667 76.6667C81.6667 74.8256 83.159 73.3333 85 73.3333C86.841 73.3333 88.3333 74.8256 88.3333 76.6667C88.3333 78.5077 86.841 80 85 80C83.16 79.9977 81.669 78.5067 81.6667 76.6667ZM96.6667 85H93.6471C92.735 83.4256 91.4133 82.1279 89.8225 81.245C92.3646 78.5817 92.2665 74.3617 89.6031 71.8194C86.9398 69.2773 82.7198 69.3754 80.1775 72.0387C77.7185 74.6148 77.7185 78.6687 80.1775 81.2448C79.4142 81.6687 78.7092 82.1904 78.0808 82.7967C77.4475 80.0108 75.6558 77.6275 73.1558 76.2448C75.5448 73.7696 75.6223 69.8712 73.3335 67.3031V28.3333H96.6669V85H96.6667Z" fill="black"/>
<path d="M81.6673 38.3333H78.334V65H81.6673V38.3333Z" fill="black"/>
<path d="M91.6673 38.3333H88.334V65H91.6673V38.3333Z" fill="black"/>
<path d="M11.6673 38.3333H8.33398V65H11.6673V38.3333Z" fill="black"/>
<path d="M21.6673 38.3333H18.334V65H21.6673V38.3333Z" fill="black"/>
<path d="M60.0025 6.66666C60.0019 6.66666 60.0013 6.66666 60.0007 6.66666H40.0007C39.0807 6.66604 38.3346 7.41146 38.334 8.33146C38.334 8.33208 38.334 8.33271 38.334 8.33333V21.6667C38.3334 22.5867 39.0788 23.3327 39.9988 23.3333C39.9994 23.3333 40 23.3333 40.0007 23.3333H60.0007C60.9207 23.334 61.6667 22.5885 61.6673 21.6685C61.6673 21.6679 61.6673 21.6673 61.6673 21.6667V8.33333C61.6679 7.41333 60.9225 6.66729 60.0025 6.66666ZM58.334 20H41.6673V10H58.334V20Z" fill="black"/>
</svg>
