<svg width="89" height="89" viewBox="0 0 89 89" fill="none" xmlns="http://www.w3.org/2000/svg">
<path d="M89 45.9355V34.4173C89 31.2232 86.9442 28.4601 83.8854 27.5426L74.6452 24.7705V22.5899C77.2449 20.7718 78.9516 17.7613 78.9516 14.3562V10.0484C78.9516 4.50762 74.444 0 68.9032 0C63.3625 0 58.8548 4.50762 58.8548 10.0484V14.3548C58.8548 17.7613 60.5616 20.7718 63.1613 22.5885V24.7691L55.018 27.2125C51.962 24.4796 48.0684 22.9677 43.9344 22.9677C39.8172 22.9677 36.0504 24.4761 33.1395 26.9616L25.8387 24.7705V22.5899C28.4384 20.7718 30.1452 17.7613 30.1452 14.3562V10.0484C30.1452 4.50762 25.6375 0 20.0968 0C14.556 0 10.0484 4.50762 10.0484 10.0484V14.3548C10.0484 17.7613 11.7551 20.7718 14.3548 22.5885V24.7691L5.11461 27.5412C2.0558 28.4601 0 31.2232 0 34.4173V45.9355H2.87097V34.4173C2.87097 32.5009 4.10389 30.8426 5.9403 30.2931L15.1833 27.5195C16.0188 28.6045 17.6351 30.1452 20.0968 30.1452C22.5584 30.1452 24.1747 28.6045 25.0102 27.5195L30.8972 29.2851C29.0286 31.6353 27.7838 34.4958 27.406 37.6254C25.5731 35.6775 22.9776 34.4516 20.0968 34.4516C14.556 34.4516 10.0484 38.9592 10.0484 44.5V48.8064C10.0484 52.2129 11.7551 55.2234 14.3548 57.0402V59.2207L5.11461 61.9929C2.0558 62.9118 0 65.6748 0 68.8689V81.8226H17.2258C18.0164 81.8226 18.6613 82.4674 18.6613 83.2581V89H70.3387V83.2581C70.3387 82.4674 70.9836 81.8226 71.7742 81.8226H89V68.8689C89 65.6748 86.9442 62.9118 83.8854 61.9943L74.6452 59.2221V57.0416C77.2449 55.2234 78.9516 52.2129 78.9516 48.8078V44.5014C78.9516 38.9606 74.444 34.453 68.9032 34.453C66.0925 34.453 63.5517 35.6158 61.7258 37.4817V36.1212C61.7258 33.286 60.1852 30.7339 57.781 29.3847L63.9898 27.5209C64.8253 28.6045 66.4416 30.1452 68.9032 30.1452C71.3649 30.1452 72.9812 28.6045 73.8167 27.5195L83.0611 30.2931C84.8961 30.8426 86.129 32.5009 86.129 34.4173V45.9355H89ZM20.0968 2.87097C24.0542 2.87097 27.2742 6.09099 27.2742 10.0484H20.6912C19.7793 10.0484 18.8849 9.6783 18.2407 9.03345L17.2258 8.01852L16.2109 9.03345C15.5667 9.6783 14.6724 10.0484 13.7605 10.0484H12.9194C12.9194 6.09099 16.1394 2.87097 20.0968 2.87097ZM12.9194 14.3548V12.9194H13.7605C15.0109 12.9194 16.2053 12.5605 17.2258 11.8904C18.2463 12.5605 19.4407 12.9194 20.6912 12.9194H27.2742V14.3548C27.2742 18.3122 24.0542 21.5323 20.0968 21.5323C16.1394 21.5323 12.9194 18.3122 12.9194 14.3548ZM20.0968 27.2742C18.5709 27.2742 17.5819 25.9922 17.2258 25.4441V23.9813C18.1356 24.2525 19.0994 24.4032 20.0968 24.4032C21.0942 24.4032 22.0579 24.2525 22.9677 23.9799V25.4427C22.6117 25.9936 21.6227 27.2742 20.0968 27.2742ZM59.5551 52.4695C60.2861 54.3262 61.5478 55.9138 63.1613 57.0416V59.2221L53.9225 61.9943C53.6183 62.0847 53.3225 62.2024 53.0337 62.3328L51.6774 62.0202V59.192C53.2117 57.9591 54.4208 56.3399 55.1631 54.4839C56.8166 54.3388 58.367 53.6351 59.5551 52.4695ZM44.5 61.7258C46.0231 61.7258 47.4761 61.4216 48.8064 60.8805V62.4435L44.5 65.6734L40.1935 62.4435V60.8805C41.5239 61.4216 42.9769 61.7258 44.5 61.7258ZM38.4307 64.7103L41.9304 67.336L38.3305 69.4962L37.42 64.9444L38.4307 64.7103ZM42.9138 76.0806H46.0862L47.2027 86.129H41.7973L42.9138 76.0806ZM46.3357 73.2097H42.6629L41.8386 70.7375L44.5 69.1415L47.16 70.7375L46.3357 73.2097ZM47.0696 67.336L50.5693 64.7103L51.58 64.943L50.6695 69.4948L47.0696 67.336ZM57.7355 50.2679C57.2385 50.8132 56.607 51.1952 55.9222 51.4279C55.9621 51.0375 55.9839 50.6422 55.9839 50.2419V43.3729C57.5287 43.9589 58.6782 45.318 58.8331 46.942C58.9509 48.1777 58.5619 49.3574 57.7355 50.2679ZM53.1129 50.2419C53.1129 54.9921 49.2501 58.8548 44.5 58.8548C39.7499 58.8548 35.8871 54.9921 35.8871 50.2419V43.0645H40.7606C43.8888 43.0645 46.9329 42.2837 49.6546 40.7921L50.7901 43.0645H53.1129V50.2419ZM33.0778 51.4279C32.393 51.1952 31.7615 50.8132 31.2645 50.2679C30.4381 49.3588 30.0491 48.1777 30.1669 46.9434C30.3218 45.3194 31.4713 43.9589 33.0161 43.3743V50.2419C33.0161 50.6422 33.0379 51.0375 33.0778 51.4279ZM33.8369 54.4839C34.5778 56.3399 35.7869 57.9591 37.3226 59.192V62.0202L35.9663 62.3328C35.6761 62.2024 35.3817 62.0861 35.0789 61.9943L25.8387 59.2221V57.0416C27.4508 55.9138 28.7139 54.3262 29.4449 52.4695C30.633 53.6351 32.1834 54.3388 33.8369 54.4839ZM20.0968 37.3226C24.0542 37.3226 27.2742 40.5426 27.2742 44.5H26.4331C25.5212 44.5 24.6268 44.1299 23.9827 43.4851L22.9677 42.4701L21.9528 43.4851C21.3087 44.1299 20.4143 44.5 19.5024 44.5H12.9194C12.9194 40.5426 16.1394 37.3226 20.0968 37.3226ZM12.9194 48.8064V47.371H19.5024C20.7528 47.371 21.9472 47.0121 22.9677 46.342C23.9883 47.0121 25.1826 47.371 26.4331 47.371H27.2742V48.8064C27.2742 52.7638 24.0542 55.9839 20.0968 55.9839C16.1394 55.9839 12.9194 52.7638 12.9194 48.8064ZM20.0968 58.8548C21.0942 58.8548 22.0579 58.7041 22.9677 58.4315V59.8943C22.6117 60.4452 21.6227 61.7258 20.0968 61.7258C18.5709 61.7258 17.5819 60.4438 17.2258 59.8957V58.4329C18.1356 58.7041 19.0994 58.8548 20.0968 58.8548ZM17.2258 78.9516H11.4839V68.9032H8.6129V78.9516H2.87097V68.8689C2.87097 66.9526 4.10389 65.2942 5.9403 64.7447L15.1833 61.9711C16.0188 63.0561 17.6351 64.5968 20.0968 64.5968C22.5584 64.5968 24.1747 63.0561 25.0102 61.9711L30.4536 63.605L26.4499 64.5281C21.8638 65.5872 18.6613 69.614 18.6613 74.3192V76.0806H21.5323V74.3192C21.5323 70.9576 23.8208 68.0824 27.0962 67.3255L34.6212 65.5886L36.3133 74.0522L39.3167 72.2508L40.1662 74.8001L38.9088 86.129H31.5806V74.6452H28.7097V86.129H21.5323V83.2581C21.5323 80.884 19.5998 78.9516 17.2258 78.9516ZM83.0597 64.7447C84.8961 65.2942 86.129 66.9526 86.129 68.8689V78.9516H80.3871V68.9032H77.5161V78.9516H71.7742C69.4002 78.9516 67.4677 80.884 67.4677 83.2581V86.129H60.2903V74.6452H57.4194V86.129H50.0912L48.8324 74.8001L49.6819 72.2508L52.6853 74.0522L54.3774 65.5886L61.9038 67.3255C65.1792 68.0824 67.4677 70.9576 67.4677 74.3192V76.0806H70.3387V74.3192C70.3387 69.614 67.1362 65.5872 62.5501 64.5281L58.5464 63.605L63.9898 61.9711C64.8253 63.0561 66.4416 64.5968 68.9032 64.5968C71.3649 64.5968 72.9812 63.0561 73.8167 61.9711L83.0597 64.7447ZM71.7742 59.8957C71.4181 60.4452 70.4291 61.7258 68.9032 61.7258C67.3745 61.7258 66.3841 60.4396 66.0323 59.8957V58.4315C66.942 58.7041 67.9058 58.8548 68.9032 58.8548C69.9006 58.8548 70.8644 58.7041 71.7742 58.4315V59.8957ZM68.9032 55.9839C64.9458 55.9839 61.7258 52.7638 61.7258 48.8064V47.371H62.5669C63.8173 47.371 65.0117 47.0121 66.0323 46.342C67.0528 47.0121 68.2472 47.371 69.4976 47.371H76.0806V48.8064C76.0806 52.7638 72.8606 55.9839 68.9032 55.9839ZM68.9032 37.3226C72.8606 37.3226 76.0806 40.5426 76.0806 44.5H69.4976C68.5857 44.5 67.6913 44.1299 67.0472 43.4851L66.0323 42.4701L65.0173 43.4851C64.3732 44.1299 63.4788 44.5 62.5669 44.5H61.7258C61.7258 40.5426 64.9458 37.3226 68.9032 37.3226ZM58.8548 41.751C57.5848 40.7893 56.007 40.1935 54.3017 40.1935H52.5648L50.7992 36.6623L49.4464 37.5637C46.8642 39.2852 43.8615 40.1935 40.7606 40.1935H34.6983C32.993 40.1935 31.4152 40.7893 30.1452 41.751V39.6279C30.1452 32.0257 36.3322 25.8387 43.9344 25.8387C47.6177 25.8387 51.0816 27.2728 53.6856 29.8767L55.2087 31.3998L55.5304 31.5077C57.5182 32.1708 58.8548 34.0241 58.8548 36.1198V41.751ZM68.9032 2.87097C72.8606 2.87097 76.0806 6.09099 76.0806 10.0484H75.2395C74.3276 10.0484 73.4333 9.6783 72.7891 9.03345L71.7742 8.01852L70.7593 9.03345C70.1151 9.6783 69.2207 10.0484 68.3088 10.0484H61.7258C61.7258 6.09099 64.9458 2.87097 68.9032 2.87097ZM61.7258 14.3548V12.9194H68.3088C69.5593 12.9194 70.7537 12.5605 71.7742 11.8904C72.7947 12.5605 73.9891 12.9194 75.2395 12.9194H76.0806V14.3548C76.0806 18.3122 72.8606 21.5323 68.9032 21.5323C64.9458 21.5323 61.7258 18.3122 61.7258 14.3548ZM68.9032 27.2742C67.3745 27.2742 66.3841 25.988 66.0323 25.4441V23.9799C66.942 24.2525 67.9058 24.4032 68.9032 24.4032C69.9006 24.4032 70.8644 24.2525 71.7742 23.9799V25.4427C71.4181 25.9936 70.4291 27.2742 68.9032 27.2742Z" fill="black"/>
<path d="M33.0156 0H35.8866V2.87097H33.0156V0Z" fill="black"/>
<path d="M33.0156 5.74194H35.8866V21.5323H33.0156V5.74194Z" fill="black"/>
<path d="M53.1133 0H55.9842V2.87097H53.1133V0Z" fill="black"/>
<path d="M53.1133 5.74194H55.9842V21.5323H53.1133V5.74194Z" fill="black"/>
<path d="M38.7578 5.74194H41.6288V15.7903H38.7578V5.74194Z" fill="black"/>
<path d="M38.7578 18.6613H41.6288V21.5323H38.7578V18.6613Z" fill="black"/>
<path d="M47.3711 5.74194H50.2421V15.7903H47.3711V5.74194Z" fill="black"/>
<path d="M47.3711 18.6613H50.2421V21.5323H47.3711V18.6613Z" fill="black"/>
</svg>
