<svg width="86" height="86" viewBox="0 0 86 86" fill="none" xmlns="http://www.w3.org/2000/svg">
<g clip-path="url(#clip0)">
<path d="M59.8236 68.8H46.9236V57.3333C46.9236 53.3754 43.7149 50.1667 39.7569 50.1667H31.1569V42.2977L50.6216 28.3943C50.9369 28.1711 51.1489 27.83 51.2092 27.4483C51.2664 27.068 51.1682 26.6806 50.9369 26.3733L46.6369 20.64C46.1736 20.024 45.3061 19.8846 44.6732 20.3247L29.9816 30.487C32.5795 25.5925 30.7176 19.5186 25.8231 16.9209C20.9286 14.3229 14.8547 16.1848 12.257 21.0793C10.1681 25.0147 10.9247 29.8562 14.1146 32.9667H12.5236C12.1192 32.9676 11.7338 33.1394 11.4629 33.4397L2.20358 43.731C-0.338619 46.5713 -0.212665 50.9045 2.49024 53.5923L10.0726 61.2177C10.3705 61.516 10.7848 61.6681 11.2049 61.6333C11.6304 61.6005 12.0192 61.38 12.2656 61.0313L13.9569 58.6377V84.5667C13.9569 85.3582 14.5987 86 15.3902 86H23.9902C24.7818 86 25.4236 85.3582 25.4236 84.5667V61.6333H35.4569V68.8H31.1569C30.3654 68.8 29.7236 69.4418 29.7236 70.2333V84.5667C29.7236 85.3582 30.3654 86 31.1569 86H59.8236C60.6151 86 61.2569 85.3582 61.2569 84.5667V70.2333C61.2569 69.4418 60.6153 68.8 59.8236 68.8ZM13.9569 25.8C13.9569 21.842 17.1656 18.6333 21.1236 18.6333C25.0815 18.6333 28.2902 21.842 28.2902 25.8C28.2902 29.758 25.0815 32.9667 21.1236 32.9667C17.1656 32.9667 13.9569 29.758 13.9569 25.8ZM24.5349 35.8333L22.5569 39.7893L20.5789 35.8333H24.5349ZM13.9569 51.1843L11.6636 48.7333L13.9569 46.44V51.1843ZM23.9902 58.7667C23.1987 58.7667 22.5569 59.4084 22.5569 60.2V83.1333H16.8236V43C16.8207 42.4213 16.4701 41.9012 15.9349 41.6813C15.4012 41.4568 14.7848 41.5756 14.3726 41.9823L8.63924 47.7157C8.09296 48.2731 8.09296 49.1649 8.63924 49.7223L13.3262 54.61L10.9039 57.9927L4.48258 51.6C2.84517 49.9796 2.77566 47.3566 4.32491 45.6517L13.1686 35.8333H17.3682L21.2812 43.645C21.6423 44.3495 22.5058 44.6281 23.2105 44.2671C23.478 44.13 23.6957 43.9125 23.8326 43.645L27.9749 35.3747L45.1749 23.4637L47.7692 26.918L28.8922 40.4057C28.5163 40.6732 28.2924 41.1053 28.2902 41.5667V51.6C28.2902 52.3916 28.932 53.0333 29.7236 53.0333H39.7569C42.1318 53.0333 44.0569 54.9585 44.0569 57.3333V68.8H38.3236V60.2C38.3236 59.4084 37.6818 58.7667 36.8902 58.7667H23.9902ZM58.3902 83.1333H32.5902V71.6667H58.3902V83.1333Z" fill="black"/>
<path d="M84.1909 11.4667C78.6496 11.4667 74.1576 6.9746 74.1576 1.43333C74.1576 0.641775 73.5158 0 72.7242 0C71.9327 0 71.2909 0.641775 71.2909 1.43333C71.2909 6.9746 66.7988 11.4667 61.2576 11.4667C60.466 11.4667 59.8242 12.1084 59.8242 12.9C59.8242 13.6916 60.466 14.3333 61.2576 14.3333C66.7988 14.3333 71.2909 18.8254 71.2909 24.3667C71.2909 25.1582 71.9327 25.8 72.7242 25.8C73.5158 25.8 74.1576 25.1582 74.1576 24.3667C74.1576 18.8254 78.6496 14.3333 84.1909 14.3333C84.9824 14.3333 85.6242 13.6916 85.6242 12.9C85.6242 12.1084 84.9826 11.4667 84.1909 11.4667ZM72.7242 18.4613C71.4885 16.0784 69.546 14.1359 67.1629 12.9C69.5458 11.6641 71.4883 9.72158 72.7242 7.33867C73.9601 9.72158 75.9026 11.6641 78.2856 12.9C75.9026 14.1359 73.9601 16.0784 72.7242 18.4613Z" fill="black"/>
<path d="M48.5474 36.1079L44.6406 38.9725L46.3357 41.2842L50.2425 38.4196L48.5474 36.1079Z" fill="black"/>
<path d="M66.1472 23.2087L51.8184 33.7234L53.5143 36.0345L67.8431 25.5198L66.1472 23.2087Z" fill="black"/>
<path d="M60.4536 16.0042L51.8555 21.7367L53.4456 24.1218L62.0438 18.3893L60.4536 16.0042Z" fill="black"/>
</g>
<defs>
<clipPath id="clip0">
<rect width="86" height="86" fill="white"/>
</clipPath>
</defs>
</svg>
