<svg width="54" height="54" viewBox="0 0 54 54" fill="none" xmlns="http://www.w3.org/2000/svg">
<g clip-path="url(#clip0)">
<path d="M11.2769 29.8493C11.5545 29.8493 11.8264 29.7364 12.0226 29.5403C12.2187 29.3442 12.3315 29.0719 12.3315 28.7946C12.3315 28.5173 12.2187 28.245 12.0226 28.0489C11.8264 27.8528 11.5545 27.7399 11.2769 27.7399C10.9984 27.7399 10.7273 27.8528 10.5312 28.0489C10.3338 28.245 10.2222 28.5161 10.2222 28.7946C10.2222 29.0719 10.3338 29.3442 10.5312 29.5403C10.7273 29.7364 10.9984 29.8493 11.2769 29.8493Z" fill="black"/>
<path d="M20.712 11.7418L20.7119 11.7418C20.5409 11.7643 20.3902 11.8652 20.3043 12.0145L20.3042 12.0148L12.9053 24.8568L12.9053 24.8568C12.7523 25.1222 12.8434 25.4612 13.109 25.6143C13.374 25.767 13.7132 25.676 13.8664 25.4106C13.8664 25.4105 13.8665 25.4105 13.8665 25.4104L17.4704 19.155L17.796 18.5899L18.2572 19.0511L34.6996 35.4934L35.1608 35.9546L34.5957 36.2802L14.0495 48.1178L13.7174 48.3092L13.4463 48.0381L5.71253 40.3043L5.44149 40.0333L5.63285 39.7012L9.61676 32.7868L9.61679 32.7867C9.76974 32.5213 9.67852 32.1819 9.41306 32.0289C9.14747 31.8761 8.80837 31.9674 8.65525 32.233C8.65523 32.233 8.65522 32.233 8.65521 32.233L4.33763 39.727L4.30467 39.7842L4.25799 39.8309L2.50128 41.588L2.50118 41.5881C1.20991 42.879 0.499999 44.593 0.499999 46.419C0.499999 48.2445 1.2099 49.9585 2.50124 51.2498C3.83259 52.5812 5.58105 53.2474 7.33171 53.2474C9.08279 53.2474 10.8312 52.5812 12.1626 51.2498L13.2721 50.1404L13.6256 49.7868L13.9791 50.1403L15.7989 51.9597L15.799 51.9598C16.8254 52.9865 18.1737 53.4999 19.524 53.4999C20.8747 53.4999 22.2227 52.9865 23.2495 51.9597C25.2422 49.9671 25.3015 46.7601 23.4269 44.6951L23.0098 44.2356L23.5475 43.9258L41.7357 33.447L20.712 11.7418ZM20.712 11.7418C20.883 11.7192 21.0548 11.7775 21.1768 11.8995M20.712 11.7418L21.1768 11.8995M21.1768 11.8995L41.8511 32.5738C41.9731 32.6957 42.0315 32.8676 42.0089 33.0391M21.1768 11.8995L42.0089 33.0391M42.0089 33.0391C41.9859 33.2102 41.8851 33.3608 41.7359 33.4469L42.0089 33.0391ZM3.28545 50.4651L3.28549 50.4651C5.51678 52.6968 9.14699 52.6969 11.3783 50.4651C11.3783 50.4651 11.3783 50.4651 11.3783 50.4651L12.4878 49.3557L12.8413 49.0021L12.4878 48.6486L5.1021 41.2629L4.74855 40.9093L4.395 41.2629L3.28552 42.3724C2.20549 43.4524 1.60937 44.8909 1.60937 46.4185C1.60937 47.9462 2.2055 49.3847 3.28545 50.4651ZM22.4653 45.2933L22.4649 45.293L22.2639 45.0923L21.9928 44.8219L21.6611 45.013L15.0948 48.7959L14.5297 49.1215L14.9909 49.5827L16.5831 51.1749C16.5832 51.175 16.5832 51.175 16.5832 51.175C18.2052 52.7975 20.8434 52.7969 22.4653 51.175C24.0872 49.553 24.0872 46.9153 22.4653 45.2933ZM35.875 35.1017L36.1461 35.387L36.4871 35.1905L39.9898 33.1722L40.5549 32.8466L40.0937 32.3854L21.3653 13.6569L20.904 13.1957L20.5785 13.7609L18.5614 17.2624L18.37 17.5945L18.6411 17.8655L35.8526 35.077L35.859 35.0843C35.8631 35.0889 35.8685 35.0949 35.875 35.1017Z" fill="black" stroke="black" stroke-width="0.999997"/>
<path d="M26.7256 12.0214C26.8196 12.0473 26.9139 12.0597 27.0066 12.0597C27.4693 12.0597 27.894 11.7528 28.0226 11.2851L29.3183 6.58602L30.2176 7.48539C30.4776 7.74536 30.8542 7.85124 31.2118 7.76472C31.569 7.6782 31.8553 7.41206 31.9678 7.06187L33.7925 1.37727C33.9704 0.822732 33.6652 0.228646 33.1106 0.0506679C32.5561 -0.127311 31.962 0.177972 31.784 0.732507L30.4875 4.77204L29.5288 3.81335C29.2635 3.54803 28.877 3.4438 28.5137 3.53938C28.1507 3.63537 27.866 3.91676 27.7663 4.27889L25.989 10.724C25.8345 11.286 26.1641 11.8669 26.7256 12.0214Z" fill="black"/>
<path d="M53.8637 17.3022C53.5831 16.7917 52.942 16.6055 52.4316 16.8857L44.9301 21.006C44.6393 21.1658 44.4407 21.453 44.3941 21.7817C44.3472 22.1101 44.4576 22.4417 44.6924 22.6762L46.756 24.7398L41.8015 25.9782C41.2362 26.1195 40.8926 26.6922 41.0339 27.2575C41.1538 27.7366 41.584 28.0563 42.0565 28.0563C42.141 28.0563 42.2275 28.046 42.3132 28.0246L49.0747 26.3342C49.4434 26.2423 49.7339 25.9589 49.8352 25.5926C49.9366 25.2264 49.8332 24.8341 49.5646 24.5655L47.1775 22.1785L53.4471 18.7347C53.9576 18.4541 54.1442 17.8131 53.8637 17.3022Z" fill="black"/>
<path d="M48.6075 11.7498C48.8036 11.9472 49.0755 12.0592 49.3532 12.0592C49.6305 12.0592 49.9024 11.9472 50.0989 11.7498C50.295 11.5537 50.4079 11.2827 50.4079 11.0046C50.4079 10.7269 50.295 10.455 50.0989 10.2589C49.9024 10.0623 49.6305 9.94946 49.3532 9.94946C49.0755 9.94946 48.8036 10.0623 48.6075 10.2589C48.411 10.455 48.2981 10.7269 48.2981 11.0046C48.2981 11.2827 48.411 11.5537 48.6075 11.7498Z" fill="black"/>
<path d="M46.4499 12.4379C46.192 11.9155 45.5596 11.7013 45.0372 11.9592L41.0999 13.9025C40.795 14.0529 40.5816 14.3413 40.5264 14.6766C40.4712 15.0124 40.5808 15.354 40.821 15.5941L42.3107 17.0839L37.3504 19.5274C36.828 19.7849 36.6129 20.4173 36.8704 20.9397C37.0542 21.3125 37.4283 21.5284 37.8176 21.5284C37.9737 21.5284 38.1328 21.4938 38.2827 21.4201L44.5639 18.3256C44.8692 18.1752 45.083 17.8869 45.1386 17.5515C45.1938 17.2157 45.0842 16.8742 44.8436 16.6336L43.353 15.143L45.9708 13.8506C46.4932 13.5927 46.7074 12.9603 46.4499 12.4379Z" fill="black"/>
<path d="M33.2491 15.3548C33.4188 15.4566 33.6058 15.5052 33.7908 15.5052C34.1488 15.5052 34.4982 15.3227 34.696 14.9931L38.6012 8.48615L40.6504 10.5407C40.8737 10.7644 41.1852 10.8765 41.4999 10.846C41.8143 10.8151 42.0985 10.6454 42.2741 10.3825L48.1202 1.64139C48.444 1.15731 48.3142 0.502246 47.8301 0.178424C47.3456 -0.144986 46.6906 -0.0152101 46.3667 0.468875L41.2358 8.14049L39.1401 6.03853C38.9106 5.80823 38.5872 5.69658 38.265 5.73654C37.9424 5.7761 37.6561 5.9619 37.4888 6.24082L32.8873 13.9075C32.5874 14.4072 32.7493 15.0549 33.2491 15.3548Z" fill="black"/>
</g>
<defs>
<clipPath id="clip0">
<rect width="54" height="54" fill="white"/>
</clipPath>
</defs>
</svg>
