<svg width="113" height="86" viewBox="0 0 113 86" fill="none" xmlns="http://www.w3.org/2000/svg">
<path d="M48.1534 16.332H71.4034M48.1534 45.3945H71.4034M48.1534 27.9541H65.5909M48.1534 57.0224H65.5909M83.0313 16.332H88.838M83.0313 45.3945H88.838M83.0313 27.9541H88.838M83.0313 57.0224H88.838M68.5683 83.1614L59.8495 77.3692L51.1642 83.1788L42.3525 77.3692L33.6642 83.1614V1.82129H103.375V83.1614L94.6621 77.3692L85.9709 83.1614M68.5683 83.1614L77.2551 77.3692L85.9709 83.1614M68.5683 83.1614V83.1788M85.9709 83.1614V83.1788M24.9062 1.82129H112.094M0 28H18M6.5 37H17.75M13 46H17.5" stroke="#202020" stroke-width="3" stroke-miterlimit="10"/>
</svg>
