<svg width="26" height="26" viewBox="0 0 26 26" fill="none" xmlns="http://www.w3.org/2000/svg">
<path d="M23.7243 1.86874H23.6836L23.1555 1.94999L9.34301 7.31249C8.96013 7.4905 8.63938 7.77916 8.42214 8.14122C8.2049 8.50329 8.10115 8.92214 8.12426 9.34374V23.1562C8.12426 23.8469 8.53051 24.7406 9.74926 24.2125L23.968 18.6875C24.3443 18.5011 24.6591 18.2106 24.8751 17.8505C25.0912 17.4904 25.1993 17.076 25.1868 16.6562V2.84374C25.1868 2.31562 24.4555 1.86874 23.7243 1.86874ZM12.9993 16.3312C12.6779 16.3312 12.3637 16.2359 12.0965 16.0574C11.8292 15.8788 11.621 15.625 11.498 15.3281C11.375 15.0312 11.3428 14.7044 11.4055 14.3892C11.4682 14.074 11.623 13.7845 11.8502 13.5572C12.0775 13.3299 12.367 13.1752 12.6822 13.1125C12.9975 13.0498 13.3242 13.0819 13.6211 13.2049C13.9181 13.3279 14.1718 13.5362 14.3504 13.8034C14.529 14.0707 14.6243 14.3849 14.6243 14.7062C14.6243 15.1372 14.4531 15.5505 14.1483 15.8553C13.8436 16.16 13.4302 16.3312 12.9993 16.3312Z" fill="#777777"/>
<path d="M4.0625 5.6875C4.0625 5.47201 4.1481 5.26535 4.30048 5.11298C4.45285 4.9606 4.65951 4.875 4.875 4.875H11.1312L19.5 1.625H2.03125C1.70802 1.625 1.39802 1.7534 1.16946 1.98196C0.940904 2.21052 0.8125 2.52052 0.8125 2.84375V17.4688C0.8125 17.792 0.940904 18.102 1.16946 18.3305C1.39802 18.5591 1.70802 18.6875 2.03125 18.6875H6.5V11.375H4.875C4.65951 11.375 4.45285 11.2894 4.30048 11.137C4.1481 10.9847 4.0625 10.778 4.0625 10.5625C4.0625 10.347 4.1481 10.1403 4.30048 9.98798C4.45285 9.8356 4.65951 9.75 4.875 9.75H6.5V9.34375C6.48831 8.81394 6.58702 8.2875 6.78985 7.79791C6.99267 7.30833 7.29518 6.86632 7.67812 6.5H4.875C4.65951 6.5 4.45285 6.4144 4.30048 6.26202C4.1481 6.10965 4.0625 5.90299 4.0625 5.6875Z" fill="#777777"/>
</svg>
