<svg width="132" height="132" viewBox="0 0 132 132" fill="none" xmlns="http://www.w3.org/2000/svg">
<g clip-path="url(#clip0)">
<path d="M127.875 94.875V84.5625L111.375 70.125H94.875" stroke="#202020" stroke-width="3" stroke-miterlimit="10"/>
<path d="M49.5 119.625C54.0563 119.625 57.75 115.931 57.75 111.375C57.75 106.819 54.0563 103.125 49.5 103.125C44.9437 103.125 41.25 106.819 41.25 111.375C41.25 115.931 44.9437 119.625 49.5 119.625Z" stroke="#202020" stroke-width="3" stroke-miterlimit="10"/>
<path d="M111.375 119.625C115.931 119.625 119.625 115.931 119.625 111.375C119.625 106.819 115.931 103.125 111.375 103.125C106.819 103.125 103.125 106.819 103.125 111.375C103.125 115.931 106.819 119.625 111.375 119.625Z" stroke="#202020" stroke-width="3" stroke-miterlimit="10"/>
<path d="M103.125 111.375H57.75M41.25 111.375H33V94.875M33 94.875H127.875V111.375H119.625M33 94.875V61.4625M50.5313 49.5H94.875V94.875M4.125 78.375H16.5M12.375 94.875H16.5" stroke="#202020" stroke-width="3" stroke-miterlimit="10"/>
<path d="M28.875 61.875C42.544 61.875 53.625 50.794 53.625 37.125C53.625 23.456 42.544 12.375 28.875 12.375C15.206 12.375 4.125 23.456 4.125 37.125C4.125 50.794 15.206 61.875 28.875 61.875Z" stroke="#202020" stroke-width="3" stroke-miterlimit="10"/>
<path d="M28.875 24.75V41.25H41.25" stroke="#202020" stroke-width="3" stroke-miterlimit="10"/>
</g>
<defs>
<clipPath id="clip0">
<rect width="132" height="132" fill="white"/>
</clipPath>
</defs>
</svg>
