<svg width="26" height="26" viewBox="0 0 26 26" fill="none" xmlns="http://www.w3.org/2000/svg">
<path d="M23.7252 1.86865H23.6846L23.1565 1.9499L9.34399 7.3124C8.96111 7.49041 8.64036 7.77907 8.42312 8.14113C8.20588 8.50319 8.10212 8.92205 8.12524 9.34365V23.1562C8.12524 23.8468 8.53149 24.7405 9.75024 24.2124L23.969 18.6874C24.3452 18.501 24.6601 18.2105 24.8761 17.8504C25.0921 17.4904 25.2003 17.0759 25.1877 16.6562V2.84365C25.1877 2.31553 24.4565 1.86865 23.7252 1.86865ZM13.0002 16.3312C12.6788 16.3312 12.3647 16.2358 12.0974 16.0573C11.8302 15.8787 11.6219 15.6249 11.4989 15.328C11.3759 15.0311 11.3438 14.7044 11.4065 14.3891C11.4692 14.0739 11.6239 13.7844 11.8512 13.5571C12.0785 13.3298 12.368 13.1751 12.6832 13.1124C12.9984 13.0497 13.3252 13.0819 13.6221 13.2048C13.919 13.3278 14.1728 13.5361 14.3514 13.8034C14.5299 14.0706 14.6252 14.3848 14.6252 14.7062C14.6252 15.1371 14.454 15.5505 14.1493 15.8552C13.8445 16.1599 13.4312 16.3312 13.0002 16.3312Z" fill="black"/>
<path d="M4.0625 5.6875C4.0625 5.47201 4.1481 5.26535 4.30048 5.11298C4.45285 4.9606 4.65951 4.875 4.875 4.875H11.1312L19.5 1.625H2.03125C1.70802 1.625 1.39802 1.7534 1.16946 1.98196C0.940904 2.21052 0.8125 2.52052 0.8125 2.84375V17.4688C0.8125 17.792 0.940904 18.102 1.16946 18.3305C1.39802 18.5591 1.70802 18.6875 2.03125 18.6875H6.5V11.375H4.875C4.65951 11.375 4.45285 11.2894 4.30048 11.137C4.1481 10.9847 4.0625 10.778 4.0625 10.5625C4.0625 10.347 4.1481 10.1403 4.30048 9.98798C4.45285 9.8356 4.65951 9.75 4.875 9.75H6.5V9.34375C6.48831 8.81394 6.58702 8.2875 6.78985 7.79791C6.99267 7.30833 7.29518 6.86632 7.67812 6.5H4.875C4.65951 6.5 4.45285 6.4144 4.30048 6.26202C4.1481 6.10965 4.0625 5.90299 4.0625 5.6875Z" fill="black"/>
</svg>
