<svg width="94" height="94" viewBox="0 0 94 94" fill="none" xmlns="http://www.w3.org/2000/svg">
<g clip-path="url(#clip0)">
<path d="M91.785 30.0828L47.8268 0.253979C47.3281 -0.0847515 46.673 -0.0845679 46.174 0.253979L2.21583 30.0828C1.81211 30.3567 1.57031 30.8128 1.57031 31.3008V92.5284C1.57031 93.3411 2.22923 94.0002 3.04218 94.0002H90.9586C91.7716 94.0002 92.4305 93.3413 92.4305 92.5284V31.3008C92.4305 30.8128 92.1889 30.3567 91.785 30.0828ZM36.1089 91.0565H20.2133V75.161H23.5494V83.1087C23.5494 83.9215 24.2083 84.5806 25.0213 84.5806H31.3011C32.1139 84.5806 32.773 83.9217 32.773 83.1087V75.161H36.1091V91.0565H36.1089ZM17.0735 37.6786V34.3426H76.9275V37.6786H17.0735ZM26.4932 81.6369V75.161H29.8292V81.6369H26.4932ZM36.1089 72.2172H31.3009H25.0211H20.2132V56.3217H23.5492V64.2694C23.5492 65.0822 24.2082 65.7413 25.0211 65.7413H31.3009C32.1137 65.7413 32.7728 65.0824 32.7728 64.2694V56.3217H36.1089V72.2172ZM26.4932 62.7976V56.3217H29.8292V62.7976H26.4932ZM54.9482 91.0565H39.0526V75.161H42.3887V83.1087C42.3887 83.9215 43.0476 84.5806 43.8606 84.5806H50.1404C50.9534 84.5806 51.6123 83.9217 51.6123 83.1087V75.161H54.9484V91.0565H54.9482ZM45.3323 81.6369V75.161H48.6683V81.6369H45.3323ZM89.4869 91.0565H76.7312V59.5595C76.7312 58.7468 76.0725 58.0877 75.2593 58.0877C74.4464 58.0877 73.7875 58.7466 73.7875 59.5595V91.0563H57.8919V73.6891C57.8919 72.8763 57.2332 72.2172 56.42 72.2172H39.0526V54.8498C39.0526 54.037 38.3937 53.3779 37.5808 53.3779H20.2133V40.6222H73.7875V53.2799C73.7875 54.0927 74.4462 54.7518 75.2593 54.7518C76.0723 54.7518 76.7312 54.0928 76.7312 53.2799V40.6222H78.3993C79.2123 40.6222 79.8712 39.9633 79.8712 39.1503V32.8707C79.8712 32.0579 79.2125 31.3988 78.3993 31.3988H15.6016C14.7889 31.3988 14.1298 32.0577 14.1298 32.8707V39.1505C14.1298 39.9633 14.7887 40.6224 15.6016 40.6224H17.2698V91.0567H4.51405V32.0807L47.0004 3.2506L89.4867 32.0807V91.0565H89.4869Z" fill="black"/>
<path d="M53.2794 12.5593H40.7199C39.9071 12.5593 39.248 13.2182 39.248 14.0312C39.248 14.8442 39.907 15.5031 40.7199 15.5031H53.2794C54.0923 15.5031 54.7512 14.8442 54.7512 14.0312C54.7512 13.2182 54.0923 12.5593 53.2794 12.5593Z" fill="black"/>
<path d="M53.2794 18.8391H40.7199C39.9071 18.8391 39.248 19.498 39.248 20.311C39.248 21.1239 39.907 21.7829 40.7199 21.7829H53.2794C54.0923 21.7829 54.7512 21.1239 54.7512 20.311C54.7512 19.498 54.0923 18.8391 53.2794 18.8391Z" fill="black"/>
<path d="M53.2794 25.1191H40.7199C39.9071 25.1191 39.248 25.7781 39.248 26.591C39.248 27.404 39.907 28.0629 40.7199 28.0629H53.2794C54.0923 28.0629 54.7512 27.404 54.7512 26.591C54.7512 25.7781 54.0923 25.1191 53.2794 25.1191Z" fill="black"/>
<path d="M31.3005 67.5076H25.0207C24.2079 67.5076 23.5488 68.1665 23.5488 68.9794C23.5488 69.7922 24.2077 70.4513 25.0207 70.4513H31.3005C32.1133 70.4513 32.7724 69.7924 32.7724 68.9794C32.7722 68.1665 32.1133 67.5076 31.3005 67.5076Z" fill="black"/>
<path d="M31.3005 86.3464H25.0207C24.2079 86.3464 23.5488 87.0054 23.5488 87.8183C23.5488 88.6311 24.2077 89.2902 25.0207 89.2902H31.3005C32.1133 89.2902 32.7724 88.6313 32.7724 87.8183C32.7722 87.0055 32.1133 86.3464 31.3005 86.3464Z" fill="black"/>
<path d="M50.1404 86.3464H43.8605C43.0478 86.3464 42.3887 87.0054 42.3887 87.8183C42.3887 88.6311 43.0476 89.2902 43.8605 89.2902H50.1404C50.9533 89.2902 51.6122 88.6313 51.6122 87.8183C51.6122 87.0055 50.9535 86.3464 50.1404 86.3464Z" fill="black"/>
</g>
<defs>
<clipPath id="clip0">
<rect width="94" height="94" fill="white"/>
</clipPath>
</defs>
</svg>
