<svg width="34" height="18" viewBox="0 0 34 18" fill="none" xmlns="http://www.w3.org/2000/svg">
<path d="M33.7462 8.33561C33.4427 7.99707 26.143 0.0351562 17 0.0351562C7.85708 0.0351562 0.557447 7.99707 0.253904 8.33561C-0.0846347 8.71399 -0.0846347 9.28601 0.253904 9.66439C0.557447 10.0029 7.85722 17.9648 17 17.9648C26.1428 17.9648 33.4426 10.0029 33.7462 9.66439C34.0846 9.28601 34.0846 8.71399 33.7462 8.33561ZM17 15.9727C13.1557 15.9727 10.0274 12.8443 10.0274 9C10.0274 5.15568 13.1557 2.02734 17 2.02734C20.8444 2.02734 23.9727 5.15568 23.9727 9C23.9727 12.8443 20.8444 15.9727 17 15.9727Z" fill="white" fill-opacity="0.5"/>
</svg>
