<svg width="29" height="29" viewBox="0 0 29 29" fill="none" xmlns="http://www.w3.org/2000/svg">
<path d="M15.29 18.3613C15.7931 18.3222 16.2518 18.0655 16.5496 17.6561L21.075 11.3999C21.2137 11.208 21.1929 10.9431 21.0247 10.7749C20.8565 10.6072 20.5917 10.5864 20.3998 10.7247L14.1426 15.2516C13.7346 15.5483 13.478 16.007 13.4388 16.5102C13.3997 17.0133 13.5819 17.5058 13.9381 17.862C14.2624 18.1868 14.6998 18.3666 15.1547 18.3666C15.1996 18.3666 15.2446 18.3647 15.29 18.3613ZM14.4026 16.5856C14.4195 16.3647 14.5326 16.1631 14.7105 16.0336L18.5274 13.2723L15.767 17.0882C15.6365 17.2675 15.435 17.3802 15.2141 17.3976C14.9942 17.4121 14.7781 17.3357 14.6211 17.1786C14.4654 17.0225 14.3852 16.806 14.4026 16.5856Z" fill="#FA4616"/>
<path d="M26.1168 9.45593C26.112 9.44578 26.112 9.43515 26.1067 9.425C26.1009 9.41533 26.0917 9.41002 26.0854 9.40083C25.5968 8.56273 25.0187 7.78312 24.3623 7.07648L25.4005 6.03877L26.0839 6.7222L28.1343 4.67142L26.0839 2.62112L24.0332 4.67142L24.7171 5.35533L23.6789 6.39305C22.9722 5.73668 22.1931 5.15813 21.3545 4.66948C21.3453 4.6632 21.34 4.65402 21.3304 4.64822C21.3202 4.64242 21.3096 4.6429 21.2994 4.63758C19.8045 3.77628 18.1249 3.20257 16.3341 2.99232V2.41667H17.0591C17.7257 2.41667 18.2675 1.87485 18.2675 1.20833C18.2675 0.541817 17.7252 0 17.0587 0H12.7087C12.0421 0 11.5003 0.541817 11.5003 1.20833C11.5003 1.87485 12.0421 2.41667 12.7087 2.41667H13.4337V2.9754C12.9117 3.03098 12.3906 3.11605 11.8754 3.23398C11.6154 3.29343 11.4525 3.55298 11.5124 3.81302C11.5719 4.07305 11.8314 4.23642 12.0914 4.176C12.5361 4.07402 12.9851 3.99717 13.4351 3.94545L13.9537 3.90533C14.1123 3.89325 14.2582 3.88455 14.4003 3.87778V4.83333C14.4003 5.10062 14.6164 5.31667 14.8837 5.31667C15.1509 5.31667 15.367 5.10062 15.367 4.83333V3.88117C17.1848 3.96478 18.8977 4.45295 20.4207 5.25625L19.9442 6.0813C19.8108 6.31282 19.89 6.60813 20.1211 6.74153C20.1969 6.78552 20.2801 6.8063 20.3622 6.8063C20.5295 6.8063 20.6919 6.71978 20.7813 6.56463L21.2564 5.74152C22.7688 6.70093 24.0535 7.98563 25.0129 9.49798L24.1898 9.9731C23.9592 10.1065 23.8799 10.4018 24.0138 10.6333C24.1037 10.7885 24.2656 10.875 24.4329 10.875C24.515 10.875 24.5982 10.8542 24.6741 10.8102L25.4991 10.3337C26.3135 11.8784 26.8031 13.6194 26.8761 15.4662H25.9215C25.6543 15.4662 25.4382 15.6822 25.4382 15.9495C25.4382 16.2168 25.6543 16.4328 25.9215 16.4328H26.8761C26.8031 18.2797 26.3135 20.0206 25.4991 21.5654L24.6741 21.0888C24.443 20.9554 24.1472 21.0337 24.0138 21.2657C23.8804 21.4972 23.9597 21.7925 24.1907 21.9259L25.0138 22.401C24.0544 23.9134 22.7697 25.1981 21.2574 26.1575L20.7823 25.3344C20.6484 25.1024 20.3521 25.0236 20.122 25.1575C19.8905 25.2909 19.8112 25.5867 19.9451 25.8177L20.4217 26.6428C18.8987 27.4461 17.1858 27.9342 15.368 28.0179V27.0667C15.368 26.7994 15.1519 26.5833 14.8846 26.5833C14.6173 26.5833 14.4013 26.7994 14.4013 27.0667V28.0217C13.6294 27.9951 12.8551 27.8985 12.0929 27.7235C11.8329 27.6612 11.5733 27.8265 11.5139 28.0865C11.4539 28.3465 11.6168 28.6061 11.8768 28.6655C12.8416 28.8879 13.8271 29 14.8049 29C14.8286 29 14.8513 28.9985 14.875 28.9981C14.8783 28.9981 14.8808 29 14.8837 29C14.8875 29 14.8909 28.9976 14.8948 28.9976C17.2182 28.9816 19.398 28.3543 21.284 27.2706C21.2989 27.2639 21.3149 27.2605 21.3294 27.2518C21.3391 27.246 21.3444 27.2368 21.3536 27.2305C23.3057 26.0927 24.937 24.4634 26.0772 22.5127C26.0864 22.4996 26.098 22.4895 26.1062 22.475C26.112 22.4648 26.1115 22.4542 26.1163 22.4441C27.2203 20.5301 27.8549 18.3135 27.8549 15.95C27.8549 13.5865 27.2203 11.3699 26.1168 9.45593ZM26.0835 3.98798L26.7669 4.67142L26.0835 5.35533L25.3995 4.67142L26.0835 3.98798ZM14.4003 2.91015V1.45H12.7087C12.5757 1.45 12.467 1.34125 12.467 1.20833C12.467 1.07542 12.5757 0.966667 12.7087 0.966667H17.0587C17.1916 0.966667 17.3003 1.07542 17.3003 1.20833C17.3003 1.34125 17.1916 1.45 17.0587 1.45H15.367V2.91015C15.1988 2.90338 15.0383 2.9 14.8837 2.9C14.8701 2.9 14.8547 2.90097 14.8411 2.90097C14.829 2.90097 14.817 2.9 14.8049 2.9C14.7256 2.9 14.6463 2.90532 14.5671 2.90677C14.511 2.90822 14.4583 2.90773 14.4003 2.91015Z" fill="#FA4616"/>
<path d="M10.5348 6.76666H8.1181C7.85082 6.76666 7.63477 6.98271 7.63477 7.25C7.63477 7.51728 7.85082 7.73333 8.1181 7.73333H10.5348C10.802 7.73333 11.0181 7.51728 11.0181 7.25C11.0181 6.98271 10.802 6.76666 10.5348 6.76666Z" fill="#FA4616"/>
<path d="M10.5335 10.15H5.70013C5.43285 10.15 5.2168 10.366 5.2168 10.6333C5.2168 10.9006 5.43285 11.1167 5.70013 11.1167H10.5335C10.8007 11.1167 11.0168 10.9006 11.0168 10.6333C11.0168 10.366 10.8007 10.15 10.5335 10.15Z" fill="#FA4616"/>
<path d="M10.5341 13.5333H3.28411C3.01683 13.5333 2.80078 13.7494 2.80078 14.0167C2.80078 14.2839 3.01683 14.5 3.28411 14.5H10.5341C10.8014 14.5 11.0174 14.2839 11.0174 14.0167C11.0174 13.7494 10.8014 13.5333 10.5341 13.5333Z" fill="#FA4616"/>
<path d="M10.5339 16.9167H1.35052C1.08324 16.9167 0.867188 17.1327 0.867188 17.4C0.867188 17.6673 1.08324 17.8833 1.35052 17.8833H10.5339C10.8011 17.8833 11.0172 17.6673 11.0172 17.4C11.0172 17.1327 10.8011 16.9167 10.5339 16.9167Z" fill="#FA4616"/>
<path d="M10.5342 20.3H4.25091C3.98363 20.3 3.76758 20.516 3.76758 20.7833C3.76758 21.0506 3.98363 21.2667 4.25091 21.2667H10.5342C10.8015 21.2667 11.0176 21.0506 11.0176 20.7833C11.0176 20.516 10.8015 20.3 10.5342 20.3Z" fill="#FA4616"/>
<path d="M10.5346 23.6833H7.1513C6.88402 23.6833 6.66797 23.8994 6.66797 24.1667C6.66797 24.4339 6.88402 24.65 7.1513 24.65H10.5346C10.8019 24.65 11.018 24.4339 11.018 24.1667C11.018 23.8994 10.8019 23.6833 10.5346 23.6833Z" fill="#FA4616"/>
</svg>
