<svg width="23" height="23" viewBox="0 0 23 23" fill="none" xmlns="http://www.w3.org/2000/svg">
<path d="M11.5 0C9.22552 0 7.00211 0.674463 5.11095 1.9381C3.21978 3.20173 1.7458 4.99779 0.87539 7.09914C0.00498273 9.20049 -0.222756 11.5128 0.220974 13.7435C0.664704 15.9743 1.75997 18.0234 3.36828 19.6317C4.97658 21.24 7.02568 22.3353 9.25646 22.779C11.4872 23.2228 13.7995 22.995 15.9009 22.1246C18.0022 21.2542 19.7983 19.7802 21.0619 17.8891C22.3255 15.9979 23 13.7745 23 11.5C23 8.45001 21.7884 5.52494 19.6317 3.36827C17.4751 1.2116 14.55 0 11.5 0V0ZM16.4101 14.8253C16.3384 14.9489 16.2204 15.0389 16.0823 15.0756C15.9441 15.1122 15.797 15.0925 15.6734 15.0208L10.7813 12.1828V3.41406C10.7813 3.27109 10.838 3.13398 10.9391 3.03289C11.0402 2.93179 11.1773 2.875 11.3203 2.875C11.4633 2.875 11.6004 2.93179 11.7015 3.03289C11.8026 3.13398 11.8594 3.27109 11.8594 3.41406V11.5607L16.2146 14.0875C16.276 14.123 16.3297 14.1703 16.3728 14.2267C16.4158 14.283 16.4473 14.3473 16.4655 14.4158C16.4836 14.4844 16.4881 14.5558 16.4786 14.6261C16.4691 14.6963 16.4458 14.764 16.4101 14.8253Z" fill="white" fill-opacity="0.5"/>
</svg>
