<svg width="42" height="42" viewBox="0 0 42 42" fill="none" xmlns="http://www.w3.org/2000/svg">
<path d="M40.6875 30.1875V26.9062L35.4375 22.3125H30.1875M40.6875 30.1875H30.1875M40.6875 30.1875V35.4375H38.0625M18.375 35.4375C18.375 36.8872 17.1997 38.0625 15.75 38.0625C14.3003 38.0625 13.125 36.8872 13.125 35.4375M18.375 35.4375C18.375 33.9878 17.1997 32.8125 15.75 32.8125C14.3003 32.8125 13.125 33.9878 13.125 35.4375M18.375 35.4375H32.8125M13.125 35.4375H10.5V30.1875M38.0625 35.4375C38.0625 36.8872 36.8872 38.0625 35.4375 38.0625C33.9878 38.0625 32.8125 36.8872 32.8125 35.4375M38.0625 35.4375C38.0625 33.9878 36.8872 32.8125 35.4375 32.8125C33.9878 32.8125 32.8125 33.9878 32.8125 35.4375M10.5 30.1875H30.1875M10.5 30.1875V19.5562M30.1875 30.1875V15.75H16.0781M1.3125 24.9375H5.25M3.9375 30.1875H5.25M9.1875 7.875V13.125H13.125M17.0625 11.8125C17.0625 16.1617 13.5367 19.6875 9.1875 19.6875C4.83826 19.6875 1.3125 16.1617 1.3125 11.8125C1.3125 7.46326 4.83826 3.9375 9.1875 3.9375C13.5367 3.9375 17.0625 7.46326 17.0625 11.8125Z" stroke="#B9B9B9" stroke-miterlimit="10" stroke-linecap="round" stroke-linejoin="round"/>
</svg>
