<svg width="123" height="56" viewBox="0 0 123 56" fill="none" xmlns="http://www.w3.org/2000/svg">
<path d="M2.11997 54.1431C1.85191 54.2094 1.58084 54.0459 1.51452 53.7778L0.433793 49.4095C0.367473 49.1415 0.531015 48.8704 0.799076 48.8041C1.06714 48.7377 1.33821 48.9013 1.40452 49.1694L2.36517 53.0523L6.2481 52.0916C6.51616 52.0253 6.78723 52.1889 6.85355 52.4569C6.91987 52.725 6.75632 52.9961 6.48826 53.0624L2.11997 54.1431ZM121.987 2.99991C83.008 2.00038 29.5603 8.9453 2.428 53.916L1.57177 53.3994C29.0094 7.92251 82.99 0.999593 122.012 2.00024L121.987 2.99991Z" fill="#888888"/>
</svg>
