<svg width="158" height="79" viewBox="0 0 158 79" fill="none" xmlns="http://www.w3.org/2000/svg">
<path d="M147.482 77.6292C147.411 77.896 147.137 78.0544 146.87 77.9831L142.523 76.8204C142.256 76.749 142.097 76.4749 142.169 76.2082C142.24 75.9414 142.514 75.783 142.781 75.8543L146.645 76.8878L147.679 73.0236C147.75 72.7569 148.024 72.5985 148.291 72.6698C148.558 72.7412 148.716 73.0153 148.645 73.282L147.482 77.6292ZM8.50017 8C65.5893 8 115.806 22.531 147.432 77.2498L146.566 77.7502C115.194 23.469 65.4107 9 8.50017 9L8.50017 8Z" fill="#888888"/>
</svg>
