<svg width="20" height="27" viewBox="0 0 20 27" fill="none" xmlns="http://www.w3.org/2000/svg">
<path d="M14.1791 0H0.680465C0.304651 0 0 0.304651 0 0.895814V25.5814C0 25.7419 0.304651 26.0465 0.680465 26.0465H19.3195C19.6953 26.0465 20 25.7419 20 25.5814V6.03628C20 5.71256 19.9567 5.60837 19.8805 5.53163L14.4684 0.119535C14.3916 0.0432558 14.2874 0 14.1791 0Z" fill="#E8E8E8"/>
<path d="M14.418 0.0703125V5.58147H19.9291L14.418 0.0703125Z" fill="#C1C1C1"/>
<path d="M6.0529 15.4995C5.89104 15.4995 5.73569 15.447 5.60314 15.3479C5.11895 14.9846 5.05383 14.5805 5.08453 14.3051C5.16918 13.5479 6.10546 12.7553 7.86825 11.9479C8.56779 10.4149 9.23337 8.52604 9.63011 6.9479C9.16593 5.93766 8.71476 4.62697 9.0436 3.85813C9.15895 3.58883 9.30267 3.38231 9.57104 3.29301C9.67709 3.25766 9.94499 3.21301 10.0436 3.21301C10.278 3.21301 10.4841 3.51487 10.6301 3.70092C10.7673 3.8758 11.0785 4.2465 10.4566 6.86464C11.0836 8.15952 11.972 9.47859 12.8231 10.3818C13.4329 10.2716 13.9576 10.2153 14.385 10.2153C15.1134 10.2153 15.5548 10.3851 15.7348 10.7349C15.8836 11.0242 15.8227 11.3623 15.5534 11.7395C15.2943 12.1018 14.9371 12.2935 14.5208 12.2935C13.9552 12.2935 13.2966 11.9363 12.5622 11.2307C11.2427 11.5065 9.70174 11.9986 8.45616 12.5432C8.06732 13.3684 7.69476 14.033 7.34779 14.5205C6.87104 15.1879 6.45988 15.4995 6.0529 15.4995ZM7.29104 13.1153C6.29709 13.6739 5.89197 14.133 5.86267 14.3916C5.85802 14.4344 5.84546 14.547 6.06313 14.7135C6.13244 14.6916 6.53709 14.507 7.29104 13.1153ZM13.6338 11.0493C14.0129 11.3409 14.1055 11.4884 14.3534 11.4884C14.4622 11.4884 14.7724 11.4837 14.9162 11.2832C14.9855 11.186 15.0124 11.1237 15.0231 11.0902C14.9659 11.06 14.8901 10.9986 14.4766 10.9986C14.2417 10.9991 13.9464 11.0093 13.6338 11.0493ZM10.1594 7.9879C9.82686 9.13859 9.38779 10.3809 8.91569 11.506C9.88779 11.1288 10.9445 10.7995 11.9371 10.5665C11.3092 9.8372 10.6817 8.9265 10.1594 7.9879ZM9.87709 4.05208C9.83151 4.06743 9.25848 4.86929 9.92174 5.5479C10.3631 4.56418 9.89709 4.04557 9.87709 4.05208Z" fill="#CC4B4C"/>
<path d="M19.3195 26.0465H0.680465C0.304651 26.0465 0 25.7418 0 25.366V18.1395H20V25.366C20 25.7418 19.6953 26.0465 19.3195 26.0465Z" fill="#CC4B4C"/>
<path d="M5.06208 24.6512H4.29883V19.9647H5.64673C5.8458 19.9647 6.04301 19.9964 6.2379 20.0601C6.43278 20.1238 6.60767 20.2191 6.76255 20.3461C6.91743 20.4731 7.04255 20.627 7.1379 20.807C7.23325 20.987 7.28115 21.1894 7.28115 21.4145C7.28115 21.6522 7.24069 21.867 7.16022 22.0601C7.07976 22.2531 6.9672 22.4154 6.82301 22.5466C6.67883 22.6777 6.50487 22.7796 6.30162 22.8517C6.09836 22.9238 5.87325 22.9596 5.62767 22.9596H5.06162V24.6512H5.06208ZM5.06208 20.5433V22.4001H5.76162C5.85464 22.4001 5.94673 22.3843 6.03836 22.3522C6.12953 22.3205 6.21325 22.2684 6.28953 22.1963C6.3658 22.1243 6.4272 22.0238 6.47371 21.8945C6.52022 21.7652 6.54348 21.6052 6.54348 21.4145C6.54348 21.3382 6.53278 21.2498 6.51185 21.1508C6.49046 21.0512 6.4472 20.9559 6.38162 20.8647C6.31557 20.7736 6.22348 20.6973 6.10487 20.6359C5.98627 20.5745 5.82906 20.5438 5.63418 20.5438H5.06208V20.5433Z" fill="white"/>
<path d="M11.9615 22.1777C11.9615 22.5633 11.9201 22.8931 11.8373 23.1666C11.7545 23.4401 11.6498 23.6689 11.5224 23.8536C11.3949 24.0382 11.2522 24.1833 11.0931 24.2894C10.934 24.3954 10.7805 24.4745 10.6322 24.528C10.4838 24.581 10.348 24.615 10.2252 24.6298C10.1024 24.6438 10.0112 24.6512 9.95169 24.6512H8.17773V19.9647H9.58936C9.98378 19.9647 10.3303 20.0275 10.6289 20.1522C10.9275 20.2768 11.1759 20.4438 11.3731 20.6512C11.5703 20.8587 11.7173 21.0954 11.8149 21.3601C11.9126 21.6252 11.9615 21.8977 11.9615 22.1777ZM9.69773 24.0917C10.2149 24.0917 10.588 23.9266 10.8168 23.5959C11.0456 23.2652 11.1601 22.7861 11.1601 22.1587C11.1601 21.9638 11.1368 21.7708 11.0903 21.5801C11.0433 21.3894 10.9535 21.2168 10.8201 21.0619C10.6866 20.907 10.5052 20.7819 10.2763 20.6866C10.0475 20.5912 9.75076 20.5433 9.38611 20.5433H8.94099V24.0917H9.69773Z" fill="white"/>
<path d="M13.8442 20.5433V22.0187H15.8028V22.5401H13.8442V24.6512H13.0684V19.9647H15.9995V20.5433H13.8442Z" fill="white"/>
</svg>
